<?xml version="1.0" encoding="UTF-8"?>
<svg xmlns="http://www.w3.org/2000/svg" xmlns:xlink="http://www.w3.org/1999/xlink" width="720pt" height="380pt" viewBox="0 0 720 380">
<defs>
<g>
<g id="glyph-0-0">
<path d="M 9.234375 7.984375 C 20.21875 7.984375 28.203125 -0.484375 30.59375 -11.9375 L 32.875 -22.921875 L 32.046875 -22.921875 L 28.5 -22.015625 C 26.15625 -16.375 21.953125 -14.8125 18.71875 -14.8125 C 13.203125 -14.8125 11.09375 -19.5 11.09375 -23.9375 C 11.09375 -30.65625 15.953125 -38.15625 24.125 -38.15625 C 27.484375 -38.15625 30.359375 -36.90625 30.359375 -33.71875 C 30.359375 -30.421875 27.359375 -28.859375 24 -28.859375 L 23.9375 -27.59375 C 24.953125 -27.359375 26.515625 -27.0625 27.59375 -27.0625 C 31.265625 -27.0625 35.09375 -30.484375 35.09375 -34.375 C 35.09375 -39.125 29.34375 -40.140625 25.265625 -40.140625 C 15.90625 -40.140625 5.515625 -34.796875 5.515625 -23.765625 C 5.515625 -16.203125 10.375 -12.90625 17.09375 -12.90625 C 20.40625 -12.90625 23.34375 -13.6875 26.34375 -15.421875 L 26.578125 -15.296875 L 25.3125 -9.84375 C 24.125 -4.625 22.921875 -0.71875 19.6875 2.15625 C 17.09375 4.4375 14.046875 5.453125 11.8125 5.453125 C 6.84375 5.453125 9.125 0.59375 5.40625 0.59375 C 3.59375 0.59375 2.21875 1.734375 2.21875 3.84375 C 2.21875 7.140625 5.8125 7.984375 9.234375 7.984375 Z M 9.234375 7.984375 "/>
</g>
<g id="glyph-0-1">
<path d="M 2.703125 -16.203125 C 2.703125 -2.8125 9 6.71875 18.65625 11.765625 L 19.625 10.203125 C 10.859375 4.265625 7.625 -3.953125 7.625 -16.203125 C 7.625 -28.4375 10.859375 -36.65625 19.625 -42.59375 L 18.65625 -44.15625 C 9 -39.125 2.703125 -29.578125 2.703125 -16.203125 Z M 2.703125 -16.203125 "/>
</g>
<g id="glyph-0-2">
<path d="M 34.5625 -12.234375 L 32.578125 -12.234375 C 31.375 -7.5625 29.875 -4.796875 25.3125 -4.796875 L 8.28125 -4.796875 L 8.28125 -5.09375 L 21.71875 -21.421875 L 21.71875 -22.5 L 10.375 -36.296875 L 10.375 -36.71875 L 21.90625 -36.71875 C 27.59375 -36.71875 29.703125 -35.875 30.65625 -29.28125 L 32.640625 -29.28125 L 32.28125 -39.421875 L 1.859375 -39.421875 L 1.859375 -37.984375 L 16.984375 -20.09375 L 1.796875 -1.859375 L 1.796875 0 L 32.578125 0 Z M 34.5625 -12.234375 "/>
</g>
<g id="glyph-0-3">
<path d="M 18.71875 -16.203125 C 18.71875 -29.578125 12.421875 -39.125 2.765625 -44.15625 L 1.796875 -42.59375 C 10.5625 -36.65625 13.796875 -28.4375 13.796875 -16.203125 C 13.796875 -3.953125 10.5625 4.265625 1.796875 10.203125 L 2.765625 11.765625 C 12.421875 6.71875 18.71875 -2.8125 18.71875 -16.203125 Z M 18.71875 -16.203125 "/>
</g>
<g id="glyph-1-0">
<path d="M 19.15625 -8.65625 L 12.4375 -8.65625 L 12.265625 -7.78125 C 14.390625 -7.78125 14.609375 -7.390625 14.203125 -5.375 L 13.609375 -2.328125 C 12.375 -1.484375 11.140625 -0.921875 9.4375 -0.921875 C 6.015625 -0.921875 4.5625 -3.078125 4.5625 -7.21875 C 4.59375 -13.65625 8.3125 -17.5625 12.59375 -17.5625 C 15.484375 -17.5625 17.078125 -16.046875 16.96875 -12.3125 L 17.890625 -12.3125 L 19.1875 -18.734375 L 18.390625 -18.734375 C 17.953125 -18.109375 17.671875 -17.71875 17.25 -17.71875 C 16.515625 -17.71875 15.8125 -18.765625 12.859375 -18.765625 C 7.25 -18.765625 1.734375 -14.640625 1.734375 -6.546875 C 1.734375 -2.96875 3.390625 0.3125 8.765625 0.3125 C 11.734375 0.3125 13.609375 -0.421875 15.875 -1.59375 L 16.71875 -5.65625 C 17.046875 -7.390625 17.421875 -7.78125 19.015625 -7.78125 Z M 19.15625 -8.65625 "/>
</g>
<g id="glyph-2-0">
<path d="M 8.34375 0 L 8.34375 -0.546875 C 6.546875 -0.546875 5.8125 -0.90625 5.8125 -1.859375 L 5.8125 -12.515625 L 5.25 -12.515625 L 1.453125 -11.4375 L 1.453125 -10.796875 C 2.0625 -10.984375 3.0625 -11.109375 3.453125 -11.109375 C 3.9375 -11.109375 4.09375 -10.828125 4.09375 -10.15625 L 4.09375 -1.859375 C 4.09375 -0.875 3.40625 -0.546875 1.5625 -0.546875 L 1.5625 0 Z M 8.34375 0 "/>
</g>
<g id="glyph-2-1">
<path d="M 9.09375 -3.140625 L 8.515625 -3.140625 C 8.078125 -1.953125 7.8125 -1.546875 6.78125 -1.546875 L 4.0625 -1.546875 L 2.6875 -1.484375 L 2.6875 -1.59375 L 5.265625 -4.03125 C 7.34375 -6.140625 8.46875 -7.484375 8.46875 -9.234375 C 8.46875 -11.28125 6.921875 -12.625 4.703125 -12.625 C 2.796875 -12.625 1.46875 -11.515625 0.859375 -9.625 L 1.328125 -9.421875 C 2.0625 -10.890625 2.921875 -11.34375 4.1875 -11.34375 C 5.703125 -11.34375 6.640625 -10.40625 6.640625 -8.9375 C 6.640625 -6.875 5.65625 -5.640625 3.71875 -3.640625 L 0.75 -0.671875 L 0.75 0 L 8.46875 0 Z M 9.09375 -3.140625 "/>
</g>
<g id="glyph-2-2">
<path d="M 1.6875 -9.75 C 2.34375 -10.796875 3.078125 -11.34375 4.25 -11.34375 C 5.46875 -11.34375 6.25 -10.671875 6.25 -9.515625 C 6.25 -7.9375 4.859375 -6.859375 3.53125 -6.859375 L 3.15625 -6.859375 L 3.15625 -6.109375 L 3.546875 -6.109375 C 5.421875 -6.109375 7.09375 -4.953125 7.09375 -3.21875 C 7.09375 -1.296875 5.890625 -0.71875 4.65625 -0.71875 C 4.1875 -0.71875 3.921875 -0.796875 3.078125 -1.234375 C 2.390625 -1.59375 2.234375 -1.6875 1.921875 -1.6875 C 1.40625 -1.6875 1.15625 -1.234375 1.15625 -0.828125 C 1.15625 -0.3125 1.59375 0.25 3.34375 0.25 C 6.21875 0.25 8.703125 -1.109375 8.703125 -3.796875 C 8.703125 -5.546875 7.390625 -6.578125 5.8125 -7.078125 L 5.8125 -7.125 C 7.046875 -7.921875 7.9375 -8.640625 7.9375 -10 C 7.9375 -11.484375 6.78125 -12.625 4.78125 -12.625 C 3.171875 -12.625 1.953125 -11.71875 1.234375 -10.015625 Z M 1.6875 -9.75 "/>
</g>
<g id="glyph-2-3">
<path d="M 9.421875 -3.09375 L 9.421875 -4.453125 L 7.421875 -4.453125 L 7.421875 -12.640625 L 6.234375 -12.640625 L 0.25 -4.328125 L 0.25 -3.09375 L 5.6875 -3.09375 L 5.6875 0 L 7.421875 0 L 7.421875 -3.09375 Z M 5.6875 -4.453125 L 1.328125 -4.453125 L 1.328125 -4.53125 L 5.609375 -10.5 L 5.6875 -10.5 Z M 5.6875 -4.453125 "/>
</g>
<g id="glyph-3-0">
<path d="M 0.96875 0 L 0.96875 -7.78125 L 2.15625 -7.78125 L 2.15625 -6.59375 C 2.457031 -7.144531 2.738281 -7.507812 3 -7.6875 C 3.257812 -7.863281 3.539062 -7.953125 3.84375 -7.953125 C 4.289062 -7.953125 4.742188 -7.8125 5.203125 -7.53125 L 4.75 -6.3125 C 4.425781 -6.5 4.101562 -6.59375 3.78125 -6.59375 C 3.488281 -6.59375 3.226562 -6.503906 3 -6.328125 C 2.769531 -6.160156 2.609375 -5.921875 2.515625 -5.609375 C 2.367188 -5.140625 2.296875 -4.628906 2.296875 -4.078125 L 2.296875 0 Z M 0.96875 0 "/>
</g>
<g id="glyph-3-1">
<path d="M 6.0625 -0.953125 C 5.570312 -0.546875 5.101562 -0.253906 4.65625 -0.078125 C 4.207031 0.0859375 3.722656 0.171875 3.203125 0.171875 C 2.347656 0.171875 1.691406 -0.0351562 1.234375 -0.453125 C 0.773438 -0.867188 0.546875 -1.398438 0.546875 -2.046875 C 0.546875 -2.429688 0.628906 -2.78125 0.796875 -3.09375 C 0.972656 -3.40625 1.203125 -3.65625 1.484375 -3.84375 C 1.765625 -4.039062 2.082031 -4.1875 2.4375 -4.28125 C 2.6875 -4.351562 3.078125 -4.421875 3.609375 -4.484375 C 4.671875 -4.609375 5.453125 -4.757812 5.953125 -4.9375 C 5.960938 -5.113281 5.96875 -5.226562 5.96875 -5.28125 C 5.96875 -5.820312 5.84375 -6.203125 5.59375 -6.421875 C 5.25 -6.710938 4.75 -6.859375 4.09375 -6.859375 C 3.46875 -6.859375 3.003906 -6.75 2.703125 -6.53125 C 2.410156 -6.320312 2.195312 -5.941406 2.0625 -5.390625 L 0.765625 -5.5625 C 0.878906 -6.113281 1.070312 -6.554688 1.34375 -6.890625 C 1.613281 -7.234375 2.003906 -7.492188 2.515625 -7.671875 C 3.023438 -7.859375 3.613281 -7.953125 4.28125 -7.953125 C 4.945312 -7.953125 5.484375 -7.875 5.890625 -7.71875 C 6.304688 -7.5625 6.613281 -7.363281 6.8125 -7.125 C 7.007812 -6.894531 7.144531 -6.597656 7.21875 -6.234375 C 7.257812 -6.003906 7.28125 -5.597656 7.28125 -5.015625 L 7.28125 -3.265625 C 7.28125 -2.035156 7.304688 -1.257812 7.359375 -0.9375 C 7.421875 -0.613281 7.535156 -0.300781 7.703125 0 L 6.328125 0 C 6.191406 -0.269531 6.101562 -0.585938 6.0625 -0.953125 Z M 5.953125 -3.90625 C 5.472656 -3.707031 4.753906 -3.539062 3.796875 -3.40625 C 3.253906 -3.320312 2.867188 -3.234375 2.640625 -3.140625 C 2.421875 -3.046875 2.25 -2.90625 2.125 -2.71875 C 2.007812 -2.53125 1.953125 -2.320312 1.953125 -2.09375 C 1.953125 -1.738281 2.082031 -1.441406 2.34375 -1.203125 C 2.613281 -0.972656 3.003906 -0.859375 3.515625 -0.859375 C 4.023438 -0.859375 4.476562 -0.96875 4.875 -1.1875 C 5.269531 -1.414062 5.5625 -1.722656 5.75 -2.109375 C 5.882812 -2.398438 5.953125 -2.835938 5.953125 -3.421875 Z M 5.953125 -3.90625 "/>
</g>
<g id="glyph-3-2">
<path d="M 0.984375 0 L 0.984375 -7.78125 L 2.171875 -7.78125 L 2.171875 -6.671875 C 2.742188 -7.523438 3.570312 -7.953125 4.65625 -7.953125 C 5.125 -7.953125 5.550781 -7.867188 5.9375 -7.703125 C 6.332031 -7.535156 6.628906 -7.3125 6.828125 -7.03125 C 7.023438 -6.757812 7.160156 -6.4375 7.234375 -6.0625 C 7.285156 -5.820312 7.3125 -5.394531 7.3125 -4.78125 L 7.3125 0 L 5.984375 0 L 5.984375 -4.734375 C 5.984375 -5.265625 5.929688 -5.660156 5.828125 -5.921875 C 5.734375 -6.191406 5.554688 -6.40625 5.296875 -6.5625 C 5.035156 -6.726562 4.726562 -6.8125 4.375 -6.8125 C 3.8125 -6.8125 3.328125 -6.632812 2.921875 -6.28125 C 2.515625 -5.925781 2.3125 -5.25 2.3125 -4.25 L 2.3125 0 Z M 0.984375 0 "/>
</g>
<g id="glyph-3-3">
<path d="M 1 0 L 1 -10.734375 L 2.3125 -10.734375 L 2.3125 -4.609375 L 5.4375 -7.78125 L 7.140625 -7.78125 L 4.171875 -4.890625 L 7.4375 0 L 5.8125 0 L 3.25 -3.984375 L 2.3125 -3.078125 L 2.3125 0 Z M 1 0 "/>
</g>
<g id="glyph-3-4">
<path d="M 0.46875 -3.21875 L 0.46875 -4.546875 L 4.53125 -4.546875 L 4.53125 -3.21875 Z M 0.46875 -3.21875 "/>
</g>
<g id="glyph-3-5">
<path d="M 0.5 -3.890625 C 0.5 -5.328125 0.898438 -6.394531 1.703125 -7.09375 C 2.367188 -7.664062 3.179688 -7.953125 4.140625 -7.953125 C 5.210938 -7.953125 6.085938 -7.601562 6.765625 -6.90625 C 7.441406 -6.207031 7.78125 -5.238281 7.78125 -4 C 7.78125 -3 7.628906 -2.210938 7.328125 -1.640625 C 7.035156 -1.066406 6.597656 -0.617188 6.015625 -0.296875 C 5.441406 0.0117188 4.816406 0.171875 4.140625 0.171875 C 3.054688 0.171875 2.175781 -0.175781 1.5 -0.875 C 0.832031 -1.570312 0.5 -2.578125 0.5 -3.890625 Z M 1.859375 -3.890625 C 1.859375 -2.890625 2.070312 -2.140625 2.5 -1.640625 C 2.9375 -1.148438 3.484375 -0.90625 4.140625 -0.90625 C 4.796875 -0.90625 5.34375 -1.15625 5.78125 -1.65625 C 6.21875 -2.15625 6.4375 -2.914062 6.4375 -3.9375 C 6.4375 -4.894531 6.21875 -5.617188 5.78125 -6.109375 C 5.34375 -6.609375 4.796875 -6.859375 4.140625 -6.859375 C 3.484375 -6.859375 2.9375 -6.613281 2.5 -6.125 C 2.070312 -5.632812 1.859375 -4.890625 1.859375 -3.890625 Z M 1.859375 -3.890625 "/>
</g>
<g id="glyph-3-6">
<path d="M 6.3125 -2.5 L 7.671875 -2.34375 C 7.460938 -1.539062 7.066406 -0.921875 6.484375 -0.484375 C 5.898438 -0.046875 5.15625 0.171875 4.25 0.171875 C 3.113281 0.171875 2.210938 -0.175781 1.546875 -0.875 C 0.878906 -1.570312 0.546875 -2.554688 0.546875 -3.828125 C 0.546875 -5.128906 0.882812 -6.140625 1.5625 -6.859375 C 2.238281 -7.585938 3.113281 -7.953125 4.1875 -7.953125 C 5.226562 -7.953125 6.078125 -7.597656 6.734375 -6.890625 C 7.390625 -6.179688 7.71875 -5.1875 7.71875 -3.90625 C 7.71875 -3.820312 7.71875 -3.703125 7.71875 -3.546875 L 1.90625 -3.546875 C 1.957031 -2.691406 2.195312 -2.035156 2.625 -1.578125 C 3.0625 -1.128906 3.609375 -0.90625 4.265625 -0.90625 C 4.742188 -0.90625 5.15625 -1.03125 5.5 -1.28125 C 5.84375 -1.539062 6.113281 -1.945312 6.3125 -2.5 Z M 1.984375 -4.640625 L 6.328125 -4.640625 C 6.265625 -5.296875 6.097656 -5.785156 5.828125 -6.109375 C 5.410156 -6.617188 4.867188 -6.875 4.203125 -6.875 C 3.585938 -6.875 3.070312 -6.671875 2.65625 -6.265625 C 2.25 -5.859375 2.023438 -5.316406 1.984375 -4.640625 Z M 1.984375 -4.640625 "/>
</g>
<g id="glyph-3-7">
<path d="M 0.984375 0 L 0.984375 -7.78125 L 2.171875 -7.78125 L 2.171875 -6.6875 C 2.410156 -7.070312 2.734375 -7.378906 3.140625 -7.609375 C 3.546875 -7.835938 4.007812 -7.953125 4.53125 -7.953125 C 5.101562 -7.953125 5.570312 -7.832031 5.9375 -7.59375 C 6.3125 -7.351562 6.570312 -7.019531 6.71875 -6.59375 C 7.332031 -7.5 8.132812 -7.953125 9.125 -7.953125 C 9.894531 -7.953125 10.488281 -7.738281 10.90625 -7.3125 C 11.320312 -6.882812 11.53125 -6.226562 11.53125 -5.34375 L 11.53125 0 L 10.21875 0 L 10.21875 -4.90625 C 10.21875 -5.425781 10.175781 -5.800781 10.09375 -6.03125 C 10.007812 -6.269531 9.851562 -6.457031 9.625 -6.59375 C 9.394531 -6.738281 9.128906 -6.8125 8.828125 -6.8125 C 8.285156 -6.8125 7.832031 -6.628906 7.46875 -6.265625 C 7.101562 -5.898438 6.921875 -5.316406 6.921875 -4.515625 L 6.921875 0 L 5.609375 0 L 5.609375 -5.046875 C 5.609375 -5.640625 5.5 -6.082031 5.28125 -6.375 C 5.070312 -6.664062 4.722656 -6.8125 4.234375 -6.8125 C 3.859375 -6.8125 3.515625 -6.710938 3.203125 -6.515625 C 2.890625 -6.316406 2.660156 -6.03125 2.515625 -5.65625 C 2.378906 -5.28125 2.3125 -4.738281 2.3125 -4.03125 L 2.3125 0 Z M 0.984375 0 "/>
</g>
<g id="glyph-3-8">
<path d="M 3.875 -1.171875 L 4.0625 -0.015625 C 3.6875 0.0664062 3.351562 0.109375 3.0625 0.109375 C 2.582031 0.109375 2.207031 0.0273438 1.9375 -0.125 C 1.675781 -0.28125 1.492188 -0.476562 1.390625 -0.71875 C 1.285156 -0.96875 1.234375 -1.488281 1.234375 -2.28125 L 1.234375 -6.75 L 0.265625 -6.75 L 0.265625 -7.78125 L 1.234375 -7.78125 L 1.234375 -9.703125 L 2.546875 -10.5 L 2.546875 -7.78125 L 3.875 -7.78125 L 3.875 -6.75 L 2.546875 -6.75 L 2.546875 -2.203125 C 2.546875 -1.828125 2.566406 -1.582031 2.609375 -1.46875 C 2.660156 -1.363281 2.738281 -1.28125 2.84375 -1.21875 C 2.945312 -1.15625 3.09375 -1.125 3.28125 -1.125 C 3.4375 -1.125 3.632812 -1.140625 3.875 -1.171875 Z M 3.875 -1.171875 "/>
</g>
<g id="glyph-3-9">
<path d="M 1 -9.21875 L 1 -10.734375 L 2.3125 -10.734375 L 2.3125 -9.21875 Z M 1 0 L 1 -7.78125 L 2.3125 -7.78125 L 2.3125 0 Z M 1 0 "/>
</g>
<g id="glyph-3-10">
<path d="M 6.0625 -2.84375 L 7.359375 -2.6875 C 7.222656 -1.789062 6.859375 -1.085938 6.265625 -0.578125 C 5.679688 -0.078125 4.96875 0.171875 4.125 0.171875 C 3.0625 0.171875 2.207031 -0.171875 1.5625 -0.859375 C 0.914062 -1.554688 0.59375 -2.554688 0.59375 -3.859375 C 0.59375 -4.703125 0.726562 -5.4375 1 -6.0625 C 1.28125 -6.695312 1.703125 -7.171875 2.265625 -7.484375 C 2.835938 -7.796875 3.457031 -7.953125 4.125 -7.953125 C 4.96875 -7.953125 5.660156 -7.738281 6.203125 -7.3125 C 6.742188 -6.882812 7.085938 -6.28125 7.234375 -5.5 L 5.953125 -5.296875 C 5.828125 -5.816406 5.609375 -6.207031 5.296875 -6.46875 C 4.992188 -6.738281 4.625 -6.875 4.1875 -6.875 C 3.519531 -6.875 2.976562 -6.632812 2.5625 -6.15625 C 2.144531 -5.675781 1.9375 -4.921875 1.9375 -3.890625 C 1.9375 -2.847656 2.132812 -2.085938 2.53125 -1.609375 C 2.9375 -1.140625 3.460938 -0.90625 4.109375 -0.90625 C 4.628906 -0.90625 5.0625 -1.0625 5.40625 -1.375 C 5.75 -1.695312 5.96875 -2.1875 6.0625 -2.84375 Z M 6.0625 -2.84375 "/>
</g>
<g id="glyph-3-11">
<path d="M 0.46875 -2.328125 L 1.765625 -2.53125 C 1.835938 -2.007812 2.039062 -1.609375 2.375 -1.328125 C 2.707031 -1.046875 3.175781 -0.90625 3.78125 -0.90625 C 4.382812 -0.90625 4.832031 -1.023438 5.125 -1.265625 C 5.414062 -1.515625 5.5625 -1.804688 5.5625 -2.140625 C 5.5625 -2.441406 5.429688 -2.675781 5.171875 -2.84375 C 4.992188 -2.96875 4.546875 -3.117188 3.828125 -3.296875 C 2.859375 -3.535156 2.1875 -3.742188 1.8125 -3.921875 C 1.445312 -4.109375 1.164062 -4.359375 0.96875 -4.671875 C 0.78125 -4.984375 0.6875 -5.332031 0.6875 -5.71875 C 0.6875 -6.0625 0.765625 -6.378906 0.921875 -6.671875 C 1.078125 -6.972656 1.289062 -7.21875 1.5625 -7.40625 C 1.769531 -7.5625 2.050781 -7.691406 2.40625 -7.796875 C 2.757812 -7.898438 3.140625 -7.953125 3.546875 -7.953125 C 4.148438 -7.953125 4.679688 -7.863281 5.140625 -7.6875 C 5.609375 -7.507812 5.953125 -7.269531 6.171875 -6.96875 C 6.390625 -6.675781 6.539062 -6.273438 6.625 -5.765625 L 5.34375 -5.59375 C 5.28125 -6 5.109375 -6.3125 4.828125 -6.53125 C 4.546875 -6.757812 4.148438 -6.875 3.640625 -6.875 C 3.035156 -6.875 2.601562 -6.769531 2.34375 -6.5625 C 2.082031 -6.363281 1.953125 -6.128906 1.953125 -5.859375 C 1.953125 -5.691406 2.003906 -5.539062 2.109375 -5.40625 C 2.222656 -5.257812 2.394531 -5.140625 2.625 -5.046875 C 2.75 -5.003906 3.132812 -4.894531 3.78125 -4.71875 C 4.71875 -4.46875 5.367188 -4.265625 5.734375 -4.109375 C 6.109375 -3.953125 6.398438 -3.71875 6.609375 -3.40625 C 6.816406 -3.101562 6.921875 -2.726562 6.921875 -2.28125 C 6.921875 -1.84375 6.789062 -1.429688 6.53125 -1.046875 C 6.28125 -0.660156 5.910156 -0.359375 5.421875 -0.140625 C 4.941406 0.0664062 4.394531 0.171875 3.78125 0.171875 C 2.769531 0.171875 2 -0.0351562 1.46875 -0.453125 C 0.945312 -0.867188 0.613281 -1.492188 0.46875 -2.328125 Z M 0.46875 -2.328125 "/>
</g>
<g id="glyph-3-12">
<path d="M 2.203125 0 L 0.984375 0 L 0.984375 -10.734375 L 2.296875 -10.734375 L 2.296875 -6.90625 C 2.859375 -7.601562 3.570312 -7.953125 4.4375 -7.953125 C 4.914062 -7.953125 5.367188 -7.851562 5.796875 -7.65625 C 6.222656 -7.46875 6.570312 -7.195312 6.84375 -6.84375 C 7.125 -6.5 7.34375 -6.078125 7.5 -5.578125 C 7.65625 -5.085938 7.734375 -4.5625 7.734375 -4 C 7.734375 -2.664062 7.398438 -1.632812 6.734375 -0.90625 C 6.078125 -0.1875 5.285156 0.171875 4.359375 0.171875 C 3.441406 0.171875 2.722656 -0.207031 2.203125 -0.96875 Z M 2.1875 -3.953125 C 2.1875 -3.015625 2.316406 -2.335938 2.578125 -1.921875 C 2.984375 -1.242188 3.539062 -0.90625 4.25 -0.90625 C 4.832031 -0.90625 5.332031 -1.15625 5.75 -1.65625 C 6.164062 -2.15625 6.375 -2.898438 6.375 -3.890625 C 6.375 -4.910156 6.171875 -5.660156 5.765625 -6.140625 C 5.367188 -6.628906 4.882812 -6.875 4.3125 -6.875 C 3.738281 -6.875 3.238281 -6.625 2.8125 -6.125 C 2.394531 -5.625 2.1875 -4.898438 2.1875 -3.953125 Z M 2.1875 -3.953125 "/>
</g>
<g id="glyph-3-13">
<path d="M 3.15625 0 L 0.1875 -7.78125 L 1.578125 -7.78125 L 3.25 -3.125 C 3.425781 -2.613281 3.59375 -2.085938 3.75 -1.546875 C 3.863281 -1.960938 4.023438 -2.457031 4.234375 -3.03125 L 5.96875 -7.78125 L 7.328125 -7.78125 L 4.375 0 Z M 3.15625 0 "/>
</g>
<g id="glyph-3-14">
<path d="M 6.03125 0 L 6.03125 -0.984375 C 5.539062 -0.210938 4.816406 0.171875 3.859375 0.171875 C 3.242188 0.171875 2.675781 0.00390625 2.15625 -0.328125 C 1.632812 -0.671875 1.226562 -1.148438 0.9375 -1.765625 C 0.65625 -2.378906 0.515625 -3.082031 0.515625 -3.875 C 0.515625 -4.65625 0.644531 -5.359375 0.90625 -5.984375 C 1.164062 -6.617188 1.550781 -7.101562 2.0625 -7.4375 C 2.582031 -7.78125 3.160156 -7.953125 3.796875 -7.953125 C 4.265625 -7.953125 4.679688 -7.851562 5.046875 -7.65625 C 5.421875 -7.457031 5.722656 -7.203125 5.953125 -6.890625 L 5.953125 -10.734375 L 7.265625 -10.734375 L 7.265625 0 Z M 1.875 -3.875 C 1.875 -2.882812 2.082031 -2.140625 2.5 -1.640625 C 2.914062 -1.148438 3.410156 -0.90625 3.984375 -0.90625 C 4.554688 -0.90625 5.046875 -1.140625 5.453125 -1.609375 C 5.859375 -2.085938 6.0625 -2.804688 6.0625 -3.765625 C 6.0625 -4.835938 5.851562 -5.617188 5.4375 -6.109375 C 5.03125 -6.609375 4.523438 -6.859375 3.921875 -6.859375 C 3.335938 -6.859375 2.847656 -6.617188 2.453125 -6.140625 C 2.066406 -5.660156 1.875 -4.90625 1.875 -3.875 Z M 1.875 -3.875 "/>
</g>
<g id="glyph-3-15">
<path d="M 0.984375 2.984375 L 0.984375 -7.78125 L 2.1875 -7.78125 L 2.1875 -6.765625 C 2.46875 -7.160156 2.785156 -7.457031 3.140625 -7.65625 C 3.503906 -7.851562 3.941406 -7.953125 4.453125 -7.953125 C 5.109375 -7.953125 5.691406 -7.78125 6.203125 -7.4375 C 6.710938 -7.09375 7.09375 -6.609375 7.34375 -5.984375 C 7.601562 -5.367188 7.734375 -4.691406 7.734375 -3.953125 C 7.734375 -3.148438 7.59375 -2.429688 7.3125 -1.796875 C 7.03125 -1.160156 6.613281 -0.671875 6.0625 -0.328125 C 5.519531 0.00390625 4.945312 0.171875 4.34375 0.171875 C 3.90625 0.171875 3.507812 0.0820312 3.15625 -0.09375 C 2.8125 -0.28125 2.53125 -0.519531 2.3125 -0.8125 L 2.3125 2.984375 Z M 2.1875 -3.84375 C 2.1875 -2.84375 2.390625 -2.101562 2.796875 -1.625 C 3.203125 -1.144531 3.691406 -0.90625 4.265625 -0.90625 C 4.847656 -0.90625 5.347656 -1.148438 5.765625 -1.640625 C 6.179688 -2.140625 6.390625 -2.910156 6.390625 -3.953125 C 6.390625 -4.941406 6.1875 -5.679688 5.78125 -6.171875 C 5.375 -6.671875 4.890625 -6.921875 4.328125 -6.921875 C 3.765625 -6.921875 3.265625 -6.65625 2.828125 -6.125 C 2.398438 -5.601562 2.1875 -4.84375 2.1875 -3.84375 Z M 2.1875 -3.84375 "/>
</g>
<g id="glyph-3-16">
<path d="M 0.953125 0 L 0.953125 -10.734375 L 2.28125 -10.734375 L 2.28125 0 Z M 0.953125 0 "/>
</g>
<g id="glyph-3-17">
<path d="M 0.75 0.640625 L 2.03125 0.828125 C 2.082031 1.222656 2.226562 1.515625 2.46875 1.703125 C 2.800781 1.941406 3.25 2.0625 3.8125 2.0625 C 4.425781 2.0625 4.898438 1.9375 5.234375 1.6875 C 5.566406 1.445312 5.789062 1.109375 5.90625 0.671875 C 5.96875 0.398438 6 -0.160156 6 -1.015625 C 5.425781 -0.335938 4.707031 0 3.84375 0 C 2.769531 0 1.941406 -0.382812 1.359375 -1.15625 C 0.773438 -1.925781 0.484375 -2.851562 0.484375 -3.9375 C 0.484375 -4.675781 0.617188 -5.359375 0.890625 -5.984375 C 1.160156 -6.609375 1.546875 -7.09375 2.046875 -7.4375 C 2.554688 -7.78125 3.160156 -7.953125 3.859375 -7.953125 C 4.773438 -7.953125 5.53125 -7.582031 6.125 -6.84375 L 6.125 -7.78125 L 7.34375 -7.78125 L 7.34375 -1.0625 C 7.34375 0.152344 7.21875 1.015625 6.96875 1.515625 C 6.71875 2.023438 6.328125 2.425781 5.796875 2.71875 C 5.265625 3.007812 4.609375 3.15625 3.828125 3.15625 C 2.898438 3.15625 2.148438 2.945312 1.578125 2.53125 C 1.003906 2.113281 0.726562 1.484375 0.75 0.640625 Z M 1.84375 -4.03125 C 1.84375 -3.007812 2.039062 -2.265625 2.4375 -1.796875 C 2.84375 -1.328125 3.351562 -1.09375 3.96875 -1.09375 C 4.570312 -1.09375 5.078125 -1.320312 5.484375 -1.78125 C 5.898438 -2.25 6.109375 -2.984375 6.109375 -3.984375 C 6.109375 -4.929688 5.894531 -5.644531 5.46875 -6.125 C 5.050781 -6.613281 4.546875 -6.859375 3.953125 -6.859375 C 3.359375 -6.859375 2.859375 -6.617188 2.453125 -6.140625 C 2.046875 -5.671875 1.84375 -4.96875 1.84375 -4.03125 Z M 1.84375 -4.03125 "/>
</g>
<g id="glyph-3-18">
<path d="M 6.09375 0 L 6.09375 -1.140625 C 5.476562 -0.265625 4.65625 0.171875 3.625 0.171875 C 3.164062 0.171875 2.734375 0.0820312 2.328125 -0.09375 C 1.929688 -0.269531 1.632812 -0.488281 1.4375 -0.75 C 1.25 -1.019531 1.117188 -1.347656 1.046875 -1.734375 C 0.984375 -1.984375 0.953125 -2.390625 0.953125 -2.953125 L 0.953125 -7.78125 L 2.28125 -7.78125 L 2.28125 -3.46875 C 2.28125 -2.78125 2.304688 -2.316406 2.359375 -2.078125 C 2.441406 -1.722656 2.613281 -1.445312 2.875 -1.25 C 3.144531 -1.050781 3.476562 -0.953125 3.875 -0.953125 C 4.269531 -0.953125 4.640625 -1.050781 4.984375 -1.25 C 5.335938 -1.457031 5.585938 -1.734375 5.734375 -2.078125 C 5.878906 -2.429688 5.953125 -2.941406 5.953125 -3.609375 L 5.953125 -7.78125 L 7.265625 -7.78125 L 7.265625 0 Z M 6.09375 0 "/>
</g>
<g id="glyph-4-0">
<path d="M 8.765625 -11.375 C 8.53125 -10.8125 7.96875 -10.4375 6.90625 -10.4375 C 5.234375 -10.4375 4.34375 -11.328125 2.5625 -11.328125 C 1.125 -11.328125 0.21875 -10.4375 0 -9.453125 L 0.40625 -9.453125 C 0.609375 -9.984375 1.15625 -10.390625 2.078125 -10.390625 C 3.796875 -10.390625 4.703125 -9.484375 6.53125 -9.484375 C 8.1875 -9.484375 8.796875 -10.21875 9.171875 -11.375 Z M 8.765625 -11.375 "/>
</g>
<g id="glyph-4-1">
<path d="M 10.9375 -4.9375 L 7.109375 -4.9375 L 7.015625 -4.453125 C 8.21875 -4.453125 8.359375 -4.21875 8.109375 -3.078125 L 7.78125 -1.328125 C 7.078125 -0.84375 6.375 -0.53125 5.390625 -0.53125 C 3.4375 -0.53125 2.609375 -1.765625 2.609375 -4.125 C 2.625 -7.8125 4.75 -10.03125 7.203125 -10.03125 C 8.84375 -10.03125 9.765625 -9.171875 9.703125 -7.046875 L 10.21875 -7.046875 L 10.953125 -10.703125 L 10.515625 -10.703125 C 10.25 -10.359375 10.09375 -10.125 9.859375 -10.125 C 9.4375 -10.125 9.046875 -10.71875 7.34375 -10.71875 C 4.140625 -10.71875 0.984375 -8.375 0.984375 -3.75 C 0.984375 -1.703125 1.9375 0.171875 5.015625 0.171875 C 6.703125 0.171875 7.78125 -0.234375 9.078125 -0.90625 L 9.546875 -3.234375 C 9.75 -4.21875 9.953125 -4.453125 10.859375 -4.453125 Z M 10.9375 -4.9375 "/>
</g>
<g id="glyph-4-2">
<path d="M 10.53125 -5.234375 L 10.53125 -6.3125 L 0.984375 -6.3125 L 0.984375 -5.234375 Z M 10.53125 -1.96875 L 10.53125 -3.046875 L 0.984375 -3.046875 L 0.984375 -1.96875 Z M 10.53125 -1.96875 "/>
</g>
<g id="glyph-4-3">
<path d="M 3.171875 -6.4375 L 4.109375 -11.28125 L 3.765625 -11.28125 L 1.546875 -11.109375 L 1.546875 -10.6875 C 1.546875 -10.6875 1.859375 -10.71875 2.03125 -10.71875 C 2.359375 -10.71875 2.609375 -10.609375 2.609375 -10.25 C 2.609375 -10.0625 2.5625 -9.765625 2.546875 -9.703125 L 0.734375 -0.40625 C 1.515625 0 2.34375 0.1875 3.265625 0.1875 C 6.109375 0.1875 7.734375 -2.234375 7.734375 -4.859375 C 7.734375 -6.78125 6.734375 -7.65625 5.46875 -7.65625 C 4.625 -7.65625 3.9375 -7.203125 3.25 -6.4375 Z M 2.9375 -5.0625 C 3.28125 -5.8125 3.984375 -6.765625 5.015625 -6.765625 C 5.734375 -6.765625 6.3125 -6.234375 6.3125 -4.796875 C 6.3125 -2.375 5.40625 -0.484375 3.5 -0.484375 C 2.828125 -0.484375 2.375 -0.859375 2.15625 -1.0625 Z M 2.9375 -5.0625 "/>
</g>
<g id="glyph-4-4">
<path d="M 5.046875 -4.765625 L 4.984375 -4.765625 L 4.796875 -5.578125 C 4.578125 -6.453125 4.265625 -7.15625 3.890625 -7.59375 L 3.640625 -7.59375 L 1.421875 -7.34375 L 1.421875 -6.859375 C 1.421875 -6.859375 1.65625 -6.90625 1.921875 -6.90625 C 2.96875 -6.921875 3.25 -6.5 3.6875 -5.15625 L 4.125 -3.703125 L 2.96875 -2.015625 C 2.359375 -1.125 2.0625 -1.109375 2 -1.109375 C 1.734375 -1.109375 1.34375 -1.3125 0.984375 -1.3125 C 0.609375 -1.3125 0.375 -0.953125 0.375 -0.640625 C 0.375 -0.234375 0.609375 0.140625 1.296875 0.140625 C 2.25 0.140625 2.78125 -0.609375 3.296875 -1.4375 L 4.3125 -3.109375 L 4.390625 -3.109375 L 4.78125 -1.484375 C 5.015625 -0.453125 5.359375 0.15625 6.09375 0.15625 C 7.1875 0.15625 7.859375 -0.921875 8.3125 -1.625 L 7.984375 -1.890625 C 7.546875 -1.3125 7.25 -0.984375 6.828125 -0.984375 C 6.34375 -0.984375 6.015625 -1.578125 5.5625 -3.0625 L 5.234375 -4.140625 L 6.203125 -5.703125 C 6.484375 -6.140625 6.703125 -6.375 7.078125 -6.375 C 7.28125 -6.375 7.640625 -6.203125 7.90625 -6.203125 C 8.34375 -6.203125 8.640625 -6.578125 8.640625 -6.953125 C 8.640625 -7.40625 8.453125 -7.65625 7.84375 -7.65625 C 6.890625 -7.65625 6.25 -6.875 5.828125 -6.109375 Z M 5.046875 -4.765625 "/>
</g>
<g id="glyph-5-0">
<path d="M 7.40625 -6.84375 L 7.40625 -7.59375 L 0.65625 -7.59375 L 0.65625 -6.84375 L 3.640625 -6.84375 L 3.640625 0 L 4.421875 0 L 4.421875 -6.84375 Z M 7.40625 -6.84375 "/>
</g>
<g id="glyph-6-0">
<path d="M 0.921875 0 L 0.921875 -10.375 L 2.203125 -10.375 L 2.203125 0 Z M 0.921875 0 "/>
</g>
<g id="glyph-6-1">
<path d="M 6.109375 -2.421875 L 7.421875 -2.265625 C 7.210938 -1.492188 6.828125 -0.894531 6.265625 -0.46875 C 5.703125 -0.0390625 4.984375 0.171875 4.109375 0.171875 C 3.015625 0.171875 2.144531 -0.164062 1.5 -0.84375 C 0.851562 -1.519531 0.53125 -2.472656 0.53125 -3.703125 C 0.53125 -4.960938 0.851562 -5.941406 1.5 -6.640625 C 2.15625 -7.335938 3.003906 -7.6875 4.046875 -7.6875 C 5.046875 -7.6875 5.863281 -7.34375 6.5 -6.65625 C 7.144531 -5.976562 7.46875 -5.019531 7.46875 -3.78125 C 7.46875 -3.695312 7.460938 -3.582031 7.453125 -3.4375 L 1.84375 -3.4375 C 1.894531 -2.601562 2.128906 -1.96875 2.546875 -1.53125 C 2.960938 -1.09375 3.488281 -0.875 4.125 -0.875 C 4.59375 -0.875 4.988281 -0.992188 5.3125 -1.234375 C 5.644531 -1.484375 5.910156 -1.878906 6.109375 -2.421875 Z M 1.921875 -4.484375 L 6.125 -4.484375 C 6.0625 -5.117188 5.898438 -5.59375 5.640625 -5.90625 C 5.234375 -6.394531 4.707031 -6.640625 4.0625 -6.640625 C 3.46875 -6.640625 2.972656 -6.441406 2.578125 -6.046875 C 2.179688 -5.660156 1.960938 -5.140625 1.921875 -4.484375 Z M 1.921875 -4.484375 "/>
</g>
<g id="glyph-6-2">
<path d="M 3.046875 0 L 0.1875 -7.515625 L 1.53125 -7.515625 L 3.140625 -3.015625 C 3.316406 -2.523438 3.476562 -2.019531 3.625 -1.5 C 3.738281 -1.894531 3.894531 -2.375 4.09375 -2.9375 L 5.765625 -7.515625 L 7.078125 -7.515625 L 4.234375 0 Z M 3.046875 0 "/>
</g>
<g id="glyph-6-3">
<path d="M 0.9375 0 L 0.9375 -7.515625 L 2.09375 -7.515625 L 2.09375 -6.375 C 2.382812 -6.90625 2.648438 -7.253906 2.890625 -7.421875 C 3.140625 -7.597656 3.414062 -7.6875 3.71875 -7.6875 C 4.144531 -7.6875 4.582031 -7.550781 5.03125 -7.28125 L 4.59375 -6.09375 C 4.28125 -6.28125 3.96875 -6.375 3.65625 -6.375 C 3.375 -6.375 3.117188 -6.289062 2.890625 -6.125 C 2.671875 -5.957031 2.515625 -5.722656 2.421875 -5.421875 C 2.285156 -4.972656 2.21875 -4.476562 2.21875 -3.9375 L 2.21875 0 Z M 0.9375 0 "/>
</g>
<g id="glyph-6-4">
<path d="M 5.859375 -0.921875 C 5.390625 -0.523438 4.9375 -0.242188 4.5 -0.078125 C 4.0625 0.0859375 3.59375 0.171875 3.09375 0.171875 C 2.269531 0.171875 1.632812 -0.03125 1.1875 -0.4375 C 0.75 -0.84375 0.53125 -1.359375 0.53125 -1.984375 C 0.53125 -2.347656 0.613281 -2.679688 0.78125 -2.984375 C 0.945312 -3.296875 1.164062 -3.539062 1.4375 -3.71875 C 1.707031 -3.90625 2.007812 -4.046875 2.34375 -4.140625 C 2.59375 -4.203125 2.972656 -4.265625 3.484375 -4.328125 C 4.515625 -4.453125 5.269531 -4.597656 5.75 -4.765625 C 5.757812 -4.941406 5.765625 -5.054688 5.765625 -5.109375 C 5.765625 -5.628906 5.644531 -5.992188 5.40625 -6.203125 C 5.070312 -6.492188 4.585938 -6.640625 3.953125 -6.640625 C 3.347656 -6.640625 2.898438 -6.53125 2.609375 -6.3125 C 2.328125 -6.101562 2.117188 -5.734375 1.984375 -5.203125 L 0.75 -5.375 C 0.851562 -5.90625 1.035156 -6.332031 1.296875 -6.65625 C 1.554688 -6.988281 1.929688 -7.242188 2.421875 -7.421875 C 2.921875 -7.597656 3.492188 -7.6875 4.140625 -7.6875 C 4.773438 -7.6875 5.289062 -7.609375 5.6875 -7.453125 C 6.09375 -7.304688 6.390625 -7.117188 6.578125 -6.890625 C 6.773438 -6.660156 6.910156 -6.375 6.984375 -6.03125 C 7.023438 -5.8125 7.046875 -5.414062 7.046875 -4.84375 L 7.046875 -3.15625 C 7.046875 -1.96875 7.070312 -1.21875 7.125 -0.90625 C 7.175781 -0.59375 7.285156 -0.289062 7.453125 0 L 6.125 0 C 5.988281 -0.257812 5.898438 -0.566406 5.859375 -0.921875 Z M 5.75 -3.78125 C 5.289062 -3.582031 4.597656 -3.421875 3.671875 -3.296875 C 3.148438 -3.210938 2.78125 -3.125 2.5625 -3.03125 C 2.34375 -2.9375 2.175781 -2.796875 2.0625 -2.609375 C 1.945312 -2.429688 1.890625 -2.234375 1.890625 -2.015625 C 1.890625 -1.679688 2.015625 -1.398438 2.265625 -1.171875 C 2.523438 -0.941406 2.90625 -0.828125 3.40625 -0.828125 C 3.894531 -0.828125 4.328125 -0.929688 4.703125 -1.140625 C 5.085938 -1.359375 5.367188 -1.65625 5.546875 -2.03125 C 5.679688 -2.320312 5.75 -2.75 5.75 -3.3125 Z M 5.75 -3.78125 "/>
</g>
<g id="glyph-6-5">
<path d="M 0.71875 0.625 L 1.96875 0.8125 C 2.019531 1.1875 2.160156 1.460938 2.390625 1.640625 C 2.710938 1.878906 3.144531 2 3.6875 2 C 4.28125 2 4.734375 1.878906 5.046875 1.640625 C 5.367188 1.398438 5.585938 1.070312 5.703125 0.65625 C 5.773438 0.394531 5.804688 -0.148438 5.796875 -0.984375 C 5.242188 -0.328125 4.550781 0 3.71875 0 C 2.6875 0 1.882812 -0.367188 1.3125 -1.109375 C 0.75 -1.859375 0.46875 -2.753906 0.46875 -3.796875 C 0.46875 -4.515625 0.597656 -5.175781 0.859375 -5.78125 C 1.117188 -6.394531 1.492188 -6.863281 1.984375 -7.1875 C 2.472656 -7.519531 3.050781 -7.6875 3.71875 -7.6875 C 4.613281 -7.6875 5.347656 -7.328125 5.921875 -6.609375 L 5.921875 -7.515625 L 7.09375 -7.515625 L 7.09375 -1.015625 C 7.09375 0.148438 6.972656 0.976562 6.734375 1.46875 C 6.492188 1.957031 6.113281 2.34375 5.59375 2.625 C 5.082031 2.90625 4.453125 3.046875 3.703125 3.046875 C 2.796875 3.046875 2.066406 2.84375 1.515625 2.4375 C 0.960938 2.039062 0.695312 1.4375 0.71875 0.625 Z M 1.78125 -3.890625 C 1.78125 -2.910156 1.972656 -2.191406 2.359375 -1.734375 C 2.753906 -1.285156 3.25 -1.0625 3.84375 -1.0625 C 4.425781 -1.0625 4.914062 -1.285156 5.3125 -1.734375 C 5.707031 -2.179688 5.90625 -2.890625 5.90625 -3.859375 C 5.90625 -4.773438 5.703125 -5.46875 5.296875 -5.9375 C 4.890625 -6.40625 4.394531 -6.640625 3.8125 -6.640625 C 3.25 -6.640625 2.769531 -6.40625 2.375 -5.9375 C 1.976562 -5.476562 1.78125 -4.796875 1.78125 -3.890625 Z M 1.78125 -3.890625 "/>
</g>
<g id="glyph-6-6">
<path d="M 2.125 0 L 0.953125 0 L 0.953125 -10.375 L 2.21875 -10.375 L 2.21875 -6.671875 C 2.757812 -7.347656 3.445312 -7.6875 4.28125 -7.6875 C 4.75 -7.6875 5.1875 -7.59375 5.59375 -7.40625 C 6.007812 -7.21875 6.347656 -6.957031 6.609375 -6.625 C 6.878906 -6.289062 7.085938 -5.882812 7.234375 -5.40625 C 7.390625 -4.925781 7.46875 -4.414062 7.46875 -3.875 C 7.46875 -2.582031 7.148438 -1.582031 6.515625 -0.875 C 5.878906 -0.175781 5.113281 0.171875 4.21875 0.171875 C 3.332031 0.171875 2.632812 -0.195312 2.125 -0.9375 Z M 2.109375 -3.8125 C 2.109375 -2.914062 2.234375 -2.265625 2.484375 -1.859375 C 2.890625 -1.203125 3.429688 -0.875 4.109375 -0.875 C 4.671875 -0.875 5.15625 -1.113281 5.5625 -1.59375 C 5.96875 -2.082031 6.171875 -2.804688 6.171875 -3.765625 C 6.171875 -4.742188 5.972656 -5.46875 5.578125 -5.9375 C 5.191406 -6.40625 4.722656 -6.640625 4.171875 -6.640625 C 3.609375 -6.640625 3.125 -6.394531 2.71875 -5.90625 C 2.3125 -5.425781 2.109375 -4.726562 2.109375 -3.8125 Z M 2.109375 -3.8125 "/>
</g>
<g id="glyph-6-7">
<path d="M 0.484375 -3.765625 C 0.484375 -5.148438 0.867188 -6.179688 1.640625 -6.859375 C 2.285156 -7.410156 3.070312 -7.6875 4 -7.6875 C 5.039062 -7.6875 5.890625 -7.347656 6.546875 -6.671875 C 7.203125 -5.992188 7.53125 -5.054688 7.53125 -3.859375 C 7.53125 -2.898438 7.382812 -2.140625 7.09375 -1.578125 C 6.800781 -1.023438 6.375 -0.59375 5.8125 -0.28125 C 5.257812 0.0195312 4.65625 0.171875 4 0.171875 C 2.945312 0.171875 2.097656 -0.164062 1.453125 -0.84375 C 0.804688 -1.519531 0.484375 -2.492188 0.484375 -3.765625 Z M 1.796875 -3.765625 C 1.796875 -2.796875 2.003906 -2.070312 2.421875 -1.59375 C 2.835938 -1.113281 3.363281 -0.875 4 -0.875 C 4.632812 -0.875 5.160156 -1.113281 5.578125 -1.59375 C 6.003906 -2.082031 6.21875 -2.816406 6.21875 -3.796875 C 6.21875 -4.734375 6.003906 -5.441406 5.578125 -5.921875 C 5.160156 -6.398438 4.632812 -6.640625 4 -6.640625 C 3.363281 -6.640625 2.835938 -6.398438 2.421875 -5.921875 C 2.003906 -5.441406 1.796875 -4.722656 1.796875 -3.765625 Z M 1.796875 -3.765625 "/>
</g>
<g id="glyph-6-8">
<path d="M 5.890625 0 L 5.890625 -1.109375 C 5.296875 -0.253906 4.5 0.171875 3.5 0.171875 C 3.050781 0.171875 2.632812 0.0859375 2.25 -0.078125 C 1.863281 -0.253906 1.578125 -0.46875 1.390625 -0.71875 C 1.210938 -0.976562 1.082031 -1.296875 1 -1.671875 C 0.945312 -1.921875 0.921875 -2.316406 0.921875 -2.859375 L 0.921875 -7.515625 L 2.203125 -7.515625 L 2.203125 -3.34375 C 2.203125 -2.675781 2.226562 -2.226562 2.28125 -2 C 2.363281 -1.664062 2.53125 -1.398438 2.78125 -1.203125 C 3.039062 -1.015625 3.363281 -0.921875 3.75 -0.921875 C 4.132812 -0.921875 4.492188 -1.019531 4.828125 -1.21875 C 5.160156 -1.414062 5.394531 -1.679688 5.53125 -2.015625 C 5.675781 -2.359375 5.75 -2.847656 5.75 -3.484375 L 5.75 -7.515625 L 7.03125 -7.515625 L 7.03125 0 Z M 5.890625 0 "/>
</g>
<g id="glyph-6-9">
<path d="M 0.953125 0 L 0.953125 -7.515625 L 2.109375 -7.515625 L 2.109375 -6.453125 C 2.660156 -7.273438 3.457031 -7.6875 4.5 -7.6875 C 4.945312 -7.6875 5.359375 -7.601562 5.734375 -7.4375 C 6.117188 -7.28125 6.40625 -7.066406 6.59375 -6.796875 C 6.78125 -6.535156 6.914062 -6.222656 7 -5.859375 C 7.039062 -5.628906 7.0625 -5.21875 7.0625 -4.625 L 7.0625 0 L 5.796875 0 L 5.796875 -4.578125 C 5.796875 -5.097656 5.742188 -5.484375 5.640625 -5.734375 C 5.546875 -5.992188 5.367188 -6.195312 5.109375 -6.34375 C 4.859375 -6.5 4.566406 -6.578125 4.234375 -6.578125 C 3.679688 -6.578125 3.207031 -6.40625 2.8125 -6.0625 C 2.425781 -5.71875 2.234375 -5.066406 2.234375 -4.109375 L 2.234375 0 Z M 0.953125 0 "/>
</g>
<g id="glyph-6-10">
<path d="M 5.828125 0 L 5.828125 -0.953125 C 5.359375 -0.203125 4.660156 0.171875 3.734375 0.171875 C 3.128906 0.171875 2.578125 0.00390625 2.078125 -0.328125 C 1.578125 -0.660156 1.1875 -1.117188 0.90625 -1.703125 C 0.632812 -2.296875 0.5 -2.976562 0.5 -3.75 C 0.5 -4.5 0.625 -5.179688 0.875 -5.796875 C 1.125 -6.410156 1.5 -6.878906 2 -7.203125 C 2.5 -7.523438 3.054688 -7.6875 3.671875 -7.6875 C 4.128906 -7.6875 4.535156 -7.585938 4.890625 -7.390625 C 5.242188 -7.203125 5.53125 -6.957031 5.75 -6.65625 L 5.75 -10.375 L 7.015625 -10.375 L 7.015625 0 Z M 1.8125 -3.75 C 1.8125 -2.789062 2.007812 -2.070312 2.40625 -1.59375 C 2.8125 -1.113281 3.296875 -0.875 3.859375 -0.875 C 4.410156 -0.875 4.878906 -1.101562 5.265625 -1.5625 C 5.660156 -2.019531 5.859375 -2.710938 5.859375 -3.640625 C 5.859375 -4.671875 5.660156 -5.425781 5.265625 -5.90625 C 4.867188 -6.394531 4.378906 -6.640625 3.796875 -6.640625 C 3.234375 -6.640625 2.757812 -6.40625 2.375 -5.9375 C 2 -5.476562 1.8125 -4.75 1.8125 -3.75 Z M 1.8125 -3.75 "/>
</g>
<g id="glyph-7-0">
<path d="M 2.828125 0 L 0.171875 -7 L 1.421875 -7 L 2.921875 -2.8125 C 3.085938 -2.351562 3.238281 -1.878906 3.375 -1.390625 C 3.476562 -1.765625 3.625 -2.210938 3.8125 -2.734375 L 5.375 -7 L 6.59375 -7 L 3.9375 0 Z M 2.828125 0 "/>
</g>
<g id="glyph-7-1">
<path d="M 5.6875 -2.25 L 6.90625 -2.109375 C 6.71875 -1.390625 6.359375 -0.832031 5.828125 -0.4375 C 5.304688 -0.0390625 4.640625 0.15625 3.828125 0.15625 C 2.804688 0.15625 1.992188 -0.15625 1.390625 -0.78125 C 0.796875 -1.414062 0.5 -2.300781 0.5 -3.4375 C 0.5 -4.613281 0.800781 -5.523438 1.40625 -6.171875 C 2.007812 -6.828125 2.796875 -7.15625 3.765625 -7.15625 C 4.703125 -7.15625 5.46875 -6.835938 6.0625 -6.203125 C 6.65625 -5.566406 6.953125 -4.671875 6.953125 -3.515625 C 6.953125 -3.441406 6.945312 -3.335938 6.9375 -3.203125 L 1.71875 -3.203125 C 1.757812 -2.429688 1.972656 -1.835938 2.359375 -1.421875 C 2.753906 -1.015625 3.25 -0.8125 3.84375 -0.8125 C 4.269531 -0.8125 4.632812 -0.925781 4.9375 -1.15625 C 5.25 -1.382812 5.5 -1.75 5.6875 -2.25 Z M 1.78125 -4.171875 L 5.703125 -4.171875 C 5.640625 -4.765625 5.488281 -5.207031 5.25 -5.5 C 4.875 -5.957031 4.382812 -6.1875 3.78125 -6.1875 C 3.226562 -6.1875 2.765625 -6.003906 2.390625 -5.640625 C 2.023438 -5.273438 1.820312 -4.785156 1.78125 -4.171875 Z M 1.78125 -4.171875 "/>
</g>
<g id="glyph-7-2">
<path d="M 5.453125 -2.5625 L 6.625 -2.40625 C 6.5 -1.601562 6.171875 -0.972656 5.640625 -0.515625 C 5.117188 -0.0664062 4.476562 0.15625 3.71875 0.15625 C 2.757812 0.15625 1.988281 -0.15625 1.40625 -0.78125 C 0.820312 -1.40625 0.53125 -2.300781 0.53125 -3.46875 C 0.53125 -4.226562 0.65625 -4.890625 0.90625 -5.453125 C 1.15625 -6.023438 1.535156 -6.453125 2.046875 -6.734375 C 2.554688 -7.015625 3.113281 -7.15625 3.71875 -7.15625 C 4.476562 -7.15625 5.097656 -6.960938 5.578125 -6.578125 C 6.066406 -6.191406 6.378906 -5.644531 6.515625 -4.9375 L 5.359375 -4.765625 C 5.242188 -5.234375 5.046875 -5.585938 4.765625 -5.828125 C 4.492188 -6.066406 4.160156 -6.1875 3.765625 -6.1875 C 3.171875 -6.1875 2.6875 -5.96875 2.3125 -5.53125 C 1.9375 -5.101562 1.75 -4.425781 1.75 -3.5 C 1.75 -2.5625 1.925781 -1.878906 2.28125 -1.453125 C 2.644531 -1.023438 3.117188 -0.8125 3.703125 -0.8125 C 4.160156 -0.8125 4.546875 -0.953125 4.859375 -1.234375 C 5.171875 -1.523438 5.367188 -1.96875 5.453125 -2.5625 Z M 5.453125 -2.5625 "/>
</g>
<g id="glyph-8-0">
<path d="M 0.609375 -3.640625 C 0.609375 -0.640625 2.03125 1.515625 4.203125 2.640625 L 4.421875 2.296875 C 2.4375 0.953125 1.71875 -0.890625 1.71875 -3.640625 C 1.71875 -6.40625 2.4375 -8.25 4.421875 -9.578125 L 4.203125 -9.9375 C 2.03125 -8.796875 0.609375 -6.65625 0.609375 -3.640625 Z M 0.609375 -3.640625 "/>
</g>
<g id="glyph-8-1">
<path d="M 7.390625 -9.59375 C 7.203125 -9.125 6.71875 -8.796875 5.828125 -8.796875 C 4.421875 -8.796875 3.65625 -9.5625 2.15625 -9.5625 C 0.9375 -9.5625 0.1875 -8.796875 0 -7.984375 L 0.34375 -7.984375 C 0.515625 -8.421875 0.96875 -8.765625 1.75 -8.765625 C 3.203125 -8.765625 3.96875 -8 5.515625 -8 C 6.90625 -8 7.421875 -8.625 7.734375 -9.59375 Z M 7.390625 -9.59375 "/>
</g>
<g id="glyph-8-2">
<path d="M 9.234375 -4.171875 L 6 -4.171875 L 5.90625 -3.75 C 6.9375 -3.75 7.046875 -3.5625 6.84375 -2.59375 L 6.5625 -1.125 C 5.96875 -0.71875 5.375 -0.453125 4.546875 -0.453125 C 2.90625 -0.453125 2.203125 -1.484375 2.203125 -3.484375 C 2.21875 -6.59375 4.015625 -8.46875 6.078125 -8.46875 C 7.46875 -8.46875 8.234375 -7.734375 8.1875 -5.9375 L 8.625 -5.9375 L 9.25 -9.03125 L 8.875 -9.03125 C 8.65625 -8.734375 8.515625 -8.546875 8.3125 -8.546875 C 7.96875 -8.546875 7.625 -9.046875 6.203125 -9.046875 C 3.5 -9.046875 0.84375 -7.0625 0.84375 -3.15625 C 0.84375 -1.4375 1.640625 0.15625 4.21875 0.15625 C 5.65625 0.15625 6.5625 -0.203125 7.65625 -0.765625 L 8.0625 -2.734375 C 8.21875 -3.5625 8.390625 -3.75 9.171875 -3.75 Z M 9.234375 -4.171875 "/>
</g>
<g id="glyph-8-3">
<path d="M 4.21875 -3.640625 C 4.21875 -6.65625 2.796875 -8.796875 0.625 -9.9375 L 0.40625 -9.578125 C 2.375 -8.25 3.109375 -6.40625 3.109375 -3.640625 C 3.109375 -0.890625 2.375 0.953125 0.40625 2.296875 L 0.625 2.640625 C 2.796875 1.515625 4.21875 -0.640625 4.21875 -3.640625 Z M 4.21875 -3.640625 "/>
</g>
<g id="glyph-8-4">
<path d="M 7.78125 -2.75 L 7.328125 -2.75 C 7.0625 -1.703125 6.71875 -1.078125 5.703125 -1.078125 L 1.859375 -1.078125 L 1.859375 -1.140625 L 4.890625 -4.8125 L 4.890625 -5.0625 L 2.328125 -8.171875 L 2.328125 -8.265625 L 4.921875 -8.265625 C 6.203125 -8.265625 6.6875 -8.078125 6.90625 -6.59375 L 7.34375 -6.59375 L 7.265625 -8.875 L 0.421875 -8.875 L 0.421875 -8.546875 L 3.828125 -4.515625 L 0.40625 -0.421875 L 0.40625 0 L 7.328125 0 Z M 7.78125 -2.75 "/>
</g>
<g id="glyph-8-5">
<path d="M 8.78125 -0.703125 L 8.78125 -1.5625 L 2.796875 -4.546875 L 8.78125 -7.515625 L 8.78125 -8.40625 L 0.953125 -4.609375 L 0.953125 -4.484375 Z M 8.78125 1.4375 L 8.78125 0.515625 L 0.953125 0.515625 L 0.953125 1.4375 Z M 8.78125 1.4375 "/>
</g>
<g id="glyph-8-6">
<path d="M 7.03125 -1.515625 C 6.828125 -1.25 6.5 -0.8125 6.03125 -0.8125 C 5.84375 -0.8125 5.78125 -0.921875 5.78125 -1.0625 C 5.78125 -1.234375 5.8125 -1.390625 5.8125 -1.390625 L 6.578125 -4.515625 C 6.609375 -4.703125 6.703125 -5.15625 6.703125 -5.515625 C 6.703125 -6 6.5 -6.46875 5.8125 -6.46875 C 4.21875 -6.46875 3.0625 -4.515625 2.5 -3.5 L 2.390625 -3.5 L 3.0625 -6.421875 L 2.765625 -6.421875 L 0.890625 -6.28125 L 0.890625 -5.90625 C 0.890625 -5.90625 1.15625 -5.9375 1.34375 -5.9375 C 1.640625 -5.9375 1.765625 -5.8125 1.765625 -5.578125 C 1.765625 -5.375 1.734375 -5.125 1.734375 -5.125 L 0.640625 0 L 1.734375 0 L 2.234375 -2.140625 C 2.65625 -3.0625 4.140625 -5.5 5.125 -5.5 C 5.4375 -5.5 5.53125 -5.265625 5.53125 -4.953125 C 5.53125 -4.6875 5.4375 -4.3125 5.4375 -4.3125 L 4.640625 -1.1875 C 4.625 -1.125 4.578125 -0.875 4.578125 -0.65625 C 4.578125 -0.25 4.78125 0.140625 5.453125 0.140625 C 6.421875 0.140625 6.96875 -0.8125 7.3125 -1.3125 Z M 7.03125 -1.515625 "/>
</g>
<g id="glyph-9-0">
<path d="M 6.25 -5.78125 L 6.25 -6.40625 L 0.5625 -6.40625 L 0.5625 -5.78125 L 3.078125 -5.78125 L 3.078125 0 L 3.734375 0 L 3.734375 -5.78125 Z M 6.25 -5.78125 "/>
</g>
<g id="glyph-9-1">
<path d="M 2.328125 1.453125 L 2.53125 1.453125 L 2.53125 0.25 C 2.53125 -0.90625 2.671875 -1.765625 2.9375 -2.453125 C 2.640625 -2.75 2.53125 -3.296875 2.53125 -4.234375 C 2.875 -4.203125 3 -4.171875 3.40625 -4.03125 C 3.609375 -3.953125 3.796875 -3.90625 3.90625 -3.90625 C 4.125 -3.90625 4.265625 -4.078125 4.265625 -4.3125 C 4.265625 -4.5625 4.109375 -4.75 3.90625 -4.75 C 3.796875 -4.75 3.625 -4.703125 3.421875 -4.625 C 3.015625 -4.46875 2.890625 -4.421875 2.53125 -4.421875 C 2.53125 -4.9375 2.5625 -5.15625 2.765625 -5.65625 C 2.828125 -5.84375 2.890625 -6 2.890625 -6.109375 C 2.890625 -6.328125 2.65625 -6.546875 2.421875 -6.546875 C 2.1875 -6.546875 1.96875 -6.328125 1.96875 -6.109375 C 1.96875 -6 2.015625 -5.84375 2.09375 -5.65625 C 2.28125 -5.15625 2.328125 -4.9375 2.328125 -4.421875 C 1.96875 -4.421875 1.828125 -4.46875 1.421875 -4.625 C 1.234375 -4.703125 1.0625 -4.75 0.9375 -4.75 C 0.734375 -4.75 0.5625 -4.5625 0.5625 -4.3125 C 0.5625 -4.0625 0.71875 -3.90625 1 -3.90625 C 1.109375 -3.90625 1.203125 -3.9375 1.4375 -4.03125 C 1.828125 -4.171875 1.984375 -4.203125 2.328125 -4.234375 C 2.328125 -3.28125 2.203125 -2.75 1.921875 -2.453125 C 2.15625 -1.78125 2.328125 -0.625 2.328125 0.25 Z M 2.328125 1.453125 "/>
</g>
<g id="glyph-10-0">
<path d="M 10.265625 -4.640625 L 6.65625 -4.640625 L 6.5625 -4.171875 C 7.703125 -4.171875 7.828125 -3.953125 7.609375 -2.875 L 7.296875 -1.25 C 6.625 -0.796875 5.96875 -0.5 5.0625 -0.5 C 3.21875 -0.5 2.4375 -1.65625 2.4375 -3.875 C 2.453125 -7.3125 4.453125 -9.40625 6.75 -9.40625 C 8.296875 -9.40625 9.15625 -8.59375 9.09375 -6.59375 L 9.578125 -6.59375 L 10.28125 -10.03125 L 9.859375 -10.03125 C 9.609375 -9.703125 9.46875 -9.5 9.234375 -9.5 C 8.84375 -9.5 8.46875 -10.046875 6.890625 -10.046875 C 3.890625 -10.046875 0.9375 -7.84375 0.9375 -3.515625 C 0.9375 -1.59375 1.8125 0.171875 4.6875 0.171875 C 6.28125 0.171875 7.296875 -0.21875 8.5 -0.859375 L 8.953125 -3.03125 C 9.140625 -3.953125 9.328125 -4.171875 10.1875 -4.171875 Z M 10.265625 -4.640625 "/>
</g>
<g id="glyph-10-1">
<path d="M 2.3125 2 C 5.0625 2 7.046875 -0.125 7.65625 -2.984375 L 8.21875 -5.734375 L 8.015625 -5.734375 L 7.125 -5.5 C 6.546875 -4.09375 5.484375 -3.703125 4.6875 -3.703125 C 3.296875 -3.703125 2.78125 -4.875 2.78125 -5.984375 C 2.78125 -7.671875 3.984375 -9.546875 6.03125 -9.546875 C 6.875 -9.546875 7.59375 -9.21875 7.59375 -8.4375 C 7.59375 -7.609375 6.84375 -7.21875 6 -7.21875 L 5.984375 -6.90625 C 6.234375 -6.84375 6.625 -6.765625 6.90625 -6.765625 C 7.8125 -6.765625 8.78125 -7.625 8.78125 -8.59375 C 8.78125 -9.78125 7.328125 -10.03125 6.3125 -10.03125 C 3.96875 -10.03125 1.375 -8.703125 1.375 -5.9375 C 1.375 -4.046875 2.59375 -3.21875 4.28125 -3.21875 C 5.09375 -3.21875 5.828125 -3.421875 6.578125 -3.859375 L 6.640625 -3.828125 L 6.328125 -2.453125 C 6.03125 -1.15625 5.734375 -0.1875 4.921875 0.546875 C 4.28125 1.109375 3.515625 1.359375 2.953125 1.359375 C 1.703125 1.359375 2.28125 0.15625 1.34375 0.15625 C 0.90625 0.15625 0.5625 0.4375 0.5625 0.953125 C 0.5625 1.78125 1.453125 2 2.3125 2 Z M 2.3125 2 "/>
</g>
<g id="glyph-10-2">
<path d="M 0.671875 -4.046875 C 0.671875 -0.703125 2.25 1.6875 4.671875 2.9375 L 4.90625 2.546875 C 2.71875 1.0625 1.90625 -0.984375 1.90625 -4.046875 C 1.90625 -7.109375 2.71875 -9.171875 4.90625 -10.65625 L 4.671875 -11.046875 C 2.25 -9.78125 0.671875 -7.390625 0.671875 -4.046875 Z M 0.671875 -4.046875 "/>
</g>
<g id="glyph-10-3">
<path d="M 8.640625 -3.0625 L 8.140625 -3.0625 C 7.84375 -1.890625 7.46875 -1.203125 6.328125 -1.203125 L 2.0625 -1.203125 L 2.0625 -1.28125 L 5.4375 -5.359375 L 5.4375 -5.625 L 2.59375 -9.078125 L 2.59375 -9.1875 L 5.46875 -9.1875 C 6.90625 -9.1875 7.421875 -8.96875 7.671875 -7.3125 L 8.15625 -7.3125 L 8.0625 -9.859375 L 0.46875 -9.859375 L 0.46875 -9.5 L 4.25 -5.03125 L 0.453125 -0.46875 L 0.453125 0 L 8.140625 0 Z M 8.640625 -3.0625 "/>
</g>
<g id="glyph-10-4">
<path d="M 4.6875 -4.046875 C 4.6875 -7.390625 3.109375 -9.78125 0.6875 -11.046875 L 0.453125 -10.65625 C 2.640625 -9.171875 3.453125 -7.109375 3.453125 -4.046875 C 3.453125 -0.984375 2.640625 1.0625 0.453125 2.546875 L 0.6875 2.9375 C 3.109375 1.6875 4.6875 -0.703125 4.6875 -4.046875 Z M 4.6875 -4.046875 "/>
</g>
<g id="glyph-11-0">
<path d="M 2.296875 -5 L 2.0625 -5 L 0.59375 -4.875 L 0.59375 -4.59375 C 0.59375 -4.59375 0.78125 -4.625 0.953125 -4.625 C 1.234375 -4.625 1.296875 -4.453125 1.296875 -4.3125 C 1.296875 -4.140625 1.265625 -3.984375 1.265625 -3.984375 L 0.71875 -1.484375 C 0.59375 -0.875 0.546875 -0.640625 0.546875 -0.46875 C 0.546875 -0.09375 0.78125 0.09375 1.203125 0.09375 C 1.90625 0.09375 2.3125 -0.5 2.671875 -1.015625 L 2.46875 -1.171875 C 2.296875 -0.96875 2 -0.625 1.65625 -0.625 C 1.515625 -0.625 1.453125 -0.6875 1.453125 -0.8125 C 1.453125 -0.96875 1.515625 -1.265625 1.515625 -1.265625 Z M 2.546875 -6.40625 C 2.546875 -6.75 2.359375 -6.984375 2 -6.984375 C 1.65625 -6.984375 1.421875 -6.765625 1.421875 -6.40625 C 1.421875 -6.03125 1.65625 -5.84375 1.96875 -5.84375 C 2.28125 -5.84375 2.546875 -6.046875 2.546875 -6.40625 Z M 2.546875 -6.40625 "/>
</g>
</g>
<clipPath id="clip-0">
<path clip-rule="nonzero" d="M 148 40 L 572 40 L 572 219 L 148 219 Z M 148 40 "/>
</clipPath>
<clipPath id="clip-1">
<path clip-rule="nonzero" d="M 570.574219 73.582031 C 557.996094 26.632812 453.523438 13.839844 337.222656 45 C 220.925781 76.164062 136.847656 139.480469 149.425781 186.425781 C 162.003906 233.375 266.476562 246.167969 382.777344 215.007812 C 499.074219 183.84375 583.15625 120.527344 570.574219 73.582031 Z M 570.574219 73.582031 "/>
</clipPath>
</defs>
<path fill-rule="nonzero" fill="none" fill-opacity="1" d="M 0 380.003906 L 0 0.00390625 L 720 0.00390625 L 720 380.003906 Z M 0 380.003906 "/>
<path fill="none" stroke-width="34.00041" stroke-linecap="round" stroke-linejoin="round" stroke="rgb(54.508972%, 76.861572%, 86.274719%)" stroke-opacity="1" stroke-miterlimit="10" d="M 42 -191.040906 C 130 -199.040906 167 -155.040906 245 -140.040906 C 340 -122.040906 382 -159.040906 448 -116.040906 C 520 -69.040906 601 -27.040906 690 -58.040906 " transform="matrix(1, 0, 0, -1, 0, 9.963)"/>
<path fill-rule="nonzero" fill="rgb(99.215698%, 90.194702%, 54.116821%)" fill-opacity="1" d="M 570.574219 73.582031 C 557.996094 26.632812 453.523438 13.839844 337.222656 45 C 220.925781 76.164062 136.847656 139.480469 149.425781 186.425781 C 162.003906 233.375 266.476562 246.167969 382.777344 215.007812 C 499.074219 183.84375 583.15625 120.527344 570.574219 73.582031 Z M 570.574219 73.582031 "/>
<g clip-path="url(#clip-0)">
<g clip-path="url(#clip-1)">
<path fill="none" stroke-width="34.00041" stroke-linecap="round" stroke-linejoin="round" stroke="rgb(2.74353%, 37.255859%, 56.861877%)" stroke-opacity="1" stroke-miterlimit="10" d="M 42 -191.040906 C 130 -199.040906 167 -155.040906 245 -140.040906 C 340 -122.040906 382 -159.040906 448 -116.040906 C 520 -69.040906 601 -27.040906 690 -58.040906 " transform="matrix(1, 0, 0, -1, 0, 9.963)"/>
</g>
</g>
<g fill="rgb(2.74353%, 37.255859%, 56.861877%)" fill-opacity="1">
<use xlink:href="#glyph-0-0" x="300.806" y="104.203"/>
</g>
<g fill="rgb(2.74353%, 37.255859%, 56.861877%)" fill-opacity="1">
<use xlink:href="#glyph-0-1" x="340.105993" y="104.203"/>
<use xlink:href="#glyph-0-2" x="361.52599" y="104.203"/>
<use xlink:href="#glyph-0-3" x="397.765984" y="104.203"/>
</g>
<path fill-rule="nonzero" fill="rgb(100%, 17.64679%, 55.291748%)" fill-opacity="1" d="M 243.199219 146.003906 C 243.199219 142.027344 239.976562 138.804688 236 138.804688 C 232.023438 138.804688 228.800781 142.027344 228.800781 146.003906 C 228.800781 149.980469 232.023438 153.203125 236 153.203125 C 239.976562 153.203125 243.199219 149.980469 243.199219 146.003906 Z M 243.199219 146.003906 "/>
<g fill="rgb(100%, 17.64679%, 55.291748%)" fill-opacity="1">
<use xlink:href="#glyph-1-0" x="201.459" y="126.442"/>
</g>
<g fill="rgb(100%, 17.64679%, 55.291748%)" fill-opacity="1">
<use xlink:href="#glyph-2-0" x="219.715" y="132.322"/>
</g>
<path fill-rule="nonzero" fill="rgb(100%, 17.64679%, 55.291748%)" fill-opacity="1" d="M 301.199219 144.003906 C 301.199219 140.027344 297.976562 136.804688 294 136.804688 C 290.023438 136.804688 286.800781 140.027344 286.800781 144.003906 C 286.800781 147.980469 290.023438 151.203125 294 151.203125 C 297.976562 151.203125 301.199219 147.980469 301.199219 144.003906 Z M 301.199219 144.003906 "/>
<g fill="rgb(100%, 17.64679%, 55.291748%)" fill-opacity="1">
<use xlink:href="#glyph-1-0" x="300.457" y="186.442"/>
</g>
<g fill="rgb(100%, 17.64679%, 55.291748%)" fill-opacity="1">
<use xlink:href="#glyph-2-1" x="318.713" y="192.322"/>
</g>
<path fill-rule="nonzero" fill="rgb(100%, 17.64679%, 55.291748%)" fill-opacity="1" d="M 476.199219 113.003906 C 476.199219 109.027344 472.976562 105.804688 469 105.804688 C 465.023438 105.804688 461.800781 109.027344 461.800781 113.003906 C 461.800781 116.980469 465.023438 120.203125 469 120.203125 C 472.976562 120.203125 476.199219 116.980469 476.199219 113.003906 Z M 476.199219 113.003906 "/>
<g fill="rgb(100%, 17.64679%, 55.291748%)" fill-opacity="1">
<use xlink:href="#glyph-1-0" x="476.455" y="105.315"/>
</g>
<g fill="rgb(100%, 17.64679%, 55.291748%)" fill-opacity="1">
<use xlink:href="#glyph-2-2" x="494.711" y="111.195"/>
</g>
<path fill-rule="nonzero" fill="rgb(100%, 17.64679%, 55.291748%)" fill-opacity="1" d="M 565.199219 63.003906 C 565.199219 59.027344 561.976562 55.804688 558 55.804688 C 554.023438 55.804688 550.800781 59.027344 550.800781 63.003906 C 550.800781 66.980469 554.023438 70.203125 558 70.203125 C 561.976562 70.203125 565.199219 66.980469 565.199219 63.003906 Z M 565.199219 63.003906 "/>
<g fill="rgb(100%, 17.64679%, 55.291748%)" fill-opacity="1">
<use xlink:href="#glyph-1-0" x="565.454" y="54.443"/>
</g>
<g fill="rgb(100%, 17.64679%, 55.291748%)" fill-opacity="1">
<use xlink:href="#glyph-2-3" x="583.71" y="60.323"/>
</g>
<path fill="none" stroke-width="13.00015" stroke-linecap="round" stroke-linejoin="miter" stroke="rgb(54.508972%, 76.861572%, 86.274719%)" stroke-opacity="1" stroke-miterlimit="10" d="M 48 -284.040906 L 80 -284.040906 " transform="matrix(1, 0, 0, -1, 0, 9.963)"/>
<g fill="rgb(7.841492%, 12.548828%, 11.373901%)" fill-opacity="1">
<use xlink:href="#glyph-3-0" x="101.519" y="299.282"/>
<use xlink:href="#glyph-3-1" x="106.513997" y="299.282"/>
<use xlink:href="#glyph-3-2" x="114.856991" y="299.282"/>
<use xlink:href="#glyph-3-3" x="123.199986" y="299.282"/>
<use xlink:href="#glyph-3-4" x="130.699981" y="299.282"/>
<use xlink:href="#glyph-3-5" x="135.694977" y="299.282"/>
<use xlink:href="#glyph-3-2" x="144.037972" y="299.282"/>
<use xlink:href="#glyph-3-6" x="152.380966" y="299.282"/>
</g>
<g fill="rgb(7.841492%, 12.548828%, 11.373901%)" fill-opacity="1">
<use xlink:href="#glyph-3-7" x="164.878958" y="299.282"/>
<use xlink:href="#glyph-3-1" x="177.373949" y="299.282"/>
<use xlink:href="#glyph-3-8" x="185.716944" y="299.282"/>
<use xlink:href="#glyph-3-0" x="189.883941" y="299.282"/>
<use xlink:href="#glyph-3-9" x="194.878938" y="299.282"/>
<use xlink:href="#glyph-3-10" x="198.211936" y="299.282"/>
<use xlink:href="#glyph-3-6" x="205.711931" y="299.282"/>
<use xlink:href="#glyph-3-11" x="214.054925" y="299.282"/>
</g>
<g fill="rgb(7.841492%, 12.548828%, 11.373901%)" fill-opacity="1">
<use xlink:href="#glyph-4-0" x="231.613" y="298.073"/>
</g>
<g fill="rgb(7.841492%, 12.548828%, 11.373901%)" fill-opacity="1">
<use xlink:href="#glyph-4-1" x="228.517" y="301.113"/>
</g>
<g fill="rgb(7.841492%, 12.548828%, 11.373901%)" fill-opacity="1">
<use xlink:href="#glyph-4-2" x="244.501" y="301.113"/>
</g>
<g fill="rgb(7.841492%, 12.548828%, 11.373901%)" fill-opacity="1">
<use xlink:href="#glyph-4-3" x="260.469" y="301.113"/>
</g>
<g fill="rgb(7.841492%, 12.548828%, 11.373901%)" fill-opacity="1">
<use xlink:href="#glyph-4-4" x="268.837" y="301.113"/>
</g>
<g fill="rgb(7.841492%, 12.548828%, 11.373901%)" fill-opacity="1">
<use xlink:href="#glyph-5-0" x="277.95" y="295.353"/>
</g>
<path fill="none" stroke-width="13.00015" stroke-linecap="round" stroke-linejoin="miter" stroke="rgb(99.215698%, 90.194702%, 54.116821%)" stroke-opacity="1" stroke-miterlimit="10" d="M 392 -284.040906 L 424 -284.040906 " transform="matrix(1, 0, 0, -1, 0, 9.963)"/>
<g fill="rgb(7.841492%, 12.548828%, 11.373901%)" fill-opacity="1">
<use xlink:href="#glyph-6-0" x="441.515" y="297.665"/>
<use xlink:href="#glyph-6-1" x="444.736898" y="297.665"/>
<use xlink:href="#glyph-6-2" x="452.801792" y="297.665"/>
<use xlink:href="#glyph-6-1" x="460.051787" y="297.665"/>
<use xlink:href="#glyph-6-3" x="468.116682" y="297.665"/>
<use xlink:href="#glyph-6-4" x="472.945178" y="297.665"/>
<use xlink:href="#glyph-6-5" x="481.010073" y="297.665"/>
<use xlink:href="#glyph-6-1" x="489.074967" y="297.665"/>
</g>
<g fill="rgb(7.841492%, 12.548828%, 11.373901%)" fill-opacity="1">
<use xlink:href="#glyph-6-6" x="501.156359" y="297.665"/>
<use xlink:href="#glyph-6-7" x="509.221253" y="297.665"/>
<use xlink:href="#glyph-6-8" x="517.286148" y="297.665"/>
<use xlink:href="#glyph-6-9" x="525.351042" y="297.665"/>
<use xlink:href="#glyph-6-10" x="533.415937" y="297.665"/>
</g>
<g fill="rgb(7.841492%, 12.548828%, 11.373901%)" fill-opacity="1">
<use xlink:href="#glyph-7-0" x="551.513" y="298.76"/>
<use xlink:href="#glyph-7-1" x="558.262995" y="298.76"/>
<use xlink:href="#glyph-7-2" x="565.771689" y="298.76"/>
</g>
<g fill="rgb(7.841492%, 12.548828%, 11.373901%)" fill-opacity="1">
<use xlink:href="#glyph-8-0" x="572.522" y="298.76"/>
</g>
<g fill="rgb(7.841492%, 12.548828%, 11.373901%)" fill-opacity="1">
<use xlink:href="#glyph-8-1" x="579.953" y="296.195"/>
</g>
<g fill="rgb(7.841492%, 12.548828%, 11.373901%)" fill-opacity="1">
<use xlink:href="#glyph-8-2" x="577.341" y="298.76"/>
</g>
<g fill="rgb(7.841492%, 12.548828%, 11.373901%)" fill-opacity="1">
<use xlink:href="#glyph-8-3" x="587.087993" y="298.76"/>
</g>
<g fill="rgb(7.841492%, 12.548828%, 11.373901%)" fill-opacity="1">
<use xlink:href="#glyph-9-0" x="591.907" y="293.9"/>
</g>
<g fill="rgb(7.841492%, 12.548828%, 11.373901%)" fill-opacity="1">
<use xlink:href="#glyph-8-4" x="599.251" y="298.76"/>
</g>
<g fill="rgb(7.841492%, 12.548828%, 11.373901%)" fill-opacity="1">
<use xlink:href="#glyph-9-1" x="607.405" y="293.9"/>
</g>
<g fill="rgb(7.841492%, 12.548828%, 11.373901%)" fill-opacity="1">
<use xlink:href="#glyph-7-0" x="615.034" y="298.76"/>
<use xlink:href="#glyph-7-1" x="621.783995" y="298.76"/>
<use xlink:href="#glyph-7-2" x="629.292689" y="298.76"/>
</g>
<g fill="rgb(7.841492%, 12.548828%, 11.373901%)" fill-opacity="1">
<use xlink:href="#glyph-8-0" x="636.042" y="298.76"/>
</g>
<g fill="rgb(7.841492%, 12.548828%, 11.373901%)" fill-opacity="1">
<use xlink:href="#glyph-8-1" x="643.474" y="296.195"/>
</g>
<g fill="rgb(7.841492%, 12.548828%, 11.373901%)" fill-opacity="1">
<use xlink:href="#glyph-8-2" x="640.861" y="298.76"/>
</g>
<g fill="rgb(7.841492%, 12.548828%, 11.373901%)" fill-opacity="1">
<use xlink:href="#glyph-8-3" x="650.607993" y="298.76"/>
</g>
<g fill="rgb(7.841492%, 12.548828%, 11.373901%)" fill-opacity="1">
<use xlink:href="#glyph-8-5" x="659.166986" y="298.76"/>
</g>
<g fill="rgb(7.841492%, 12.548828%, 11.373901%)" fill-opacity="1">
<use xlink:href="#glyph-8-6" x="672.639976" y="298.76"/>
</g>
<path fill-rule="nonzero" fill="rgb(100%, 17.64679%, 55.291748%)" fill-opacity="1" d="M 71.199219 350.003906 C 71.199219 346.027344 67.976562 342.804688 64 342.804688 C 60.023438 342.804688 56.800781 346.027344 56.800781 350.003906 C 56.800781 353.980469 60.023438 357.207031 64 357.207031 C 67.976562 357.207031 71.199219 353.980469 71.199219 350.003906 Z M 71.199219 350.003906 "/>
<g fill="rgb(7.841492%, 12.548828%, 11.373901%)" fill-opacity="1">
<use xlink:href="#glyph-3-5" x="101.519" y="353.747"/>
<use xlink:href="#glyph-3-12" x="109.861994" y="353.747"/>
<use xlink:href="#glyph-3-11" x="118.204989" y="353.747"/>
<use xlink:href="#glyph-3-6" x="125.704984" y="353.747"/>
<use xlink:href="#glyph-3-0" x="134.047978" y="353.747"/>
<use xlink:href="#glyph-3-13" x="139.042975" y="353.747"/>
<use xlink:href="#glyph-3-6" x="146.54297" y="353.747"/>
<use xlink:href="#glyph-3-14" x="154.885964" y="353.747"/>
</g>
<g fill="rgb(7.841492%, 12.548828%, 11.373901%)" fill-opacity="1">
<use xlink:href="#glyph-3-15" x="167.383956" y="353.747"/>
<use xlink:href="#glyph-3-6" x="175.726951" y="353.747"/>
<use xlink:href="#glyph-3-0" x="184.069945" y="353.747"/>
<use xlink:href="#glyph-3-4" x="189.064942" y="353.747"/>
<use xlink:href="#glyph-3-11" x="194.059938" y="353.747"/>
<use xlink:href="#glyph-3-1" x="201.559933" y="353.747"/>
<use xlink:href="#glyph-3-7" x="209.902928" y="353.747"/>
<use xlink:href="#glyph-3-15" x="222.397919" y="353.747"/>
<use xlink:href="#glyph-3-16" x="230.740914" y="353.747"/>
<use xlink:href="#glyph-3-6" x="234.073912" y="353.747"/>
</g>
<g fill="rgb(7.841492%, 12.548828%, 11.373901%)" fill-opacity="1">
<use xlink:href="#glyph-3-17" x="246.586903" y="353.747"/>
<use xlink:href="#glyph-3-0" x="254.929898" y="353.747"/>
<use xlink:href="#glyph-3-1" x="259.924894" y="353.747"/>
<use xlink:href="#glyph-3-14" x="268.267889" y="353.747"/>
<use xlink:href="#glyph-3-9" x="276.610883" y="353.747"/>
<use xlink:href="#glyph-3-6" x="279.943881" y="353.747"/>
<use xlink:href="#glyph-3-2" x="288.286875" y="353.747"/>
<use xlink:href="#glyph-3-8" x="296.62987" y="353.747"/>
</g>
<g fill="rgb(7.841492%, 12.548828%, 11.373901%)" fill-opacity="1">
<use xlink:href="#glyph-10-0" x="304.963" y="353.747"/>
</g>
<g fill="rgb(7.841492%, 12.548828%, 11.373901%)" fill-opacity="1">
<use xlink:href="#glyph-11-0" x="314.743" y="356.897"/>
</g>
<path fill="none" stroke-width="13.00015" stroke-linecap="round" stroke-linejoin="miter" stroke="rgb(2.74353%, 37.255859%, 56.861877%)" stroke-opacity="1" stroke-miterlimit="10" d="M 392 -340.040906 L 422 -340.040906 " transform="matrix(1, 0, 0, -1, 0, 9.963)"/>
<g fill="rgb(7.841492%, 12.548828%, 11.373901%)" fill-opacity="1">
<use xlink:href="#glyph-3-5" x="441.515" y="353.942"/>
<use xlink:href="#glyph-3-18" x="449.857994" y="353.942"/>
<use xlink:href="#glyph-3-8" x="458.200989" y="353.942"/>
<use xlink:href="#glyph-3-6" x="462.367986" y="353.942"/>
<use xlink:href="#glyph-3-0" x="470.710981" y="353.942"/>
<use xlink:href="#glyph-3-17" x="475.705977" y="353.942"/>
<use xlink:href="#glyph-3-0" x="484.048972" y="353.942"/>
<use xlink:href="#glyph-3-1" x="489.043968" y="353.942"/>
<use xlink:href="#glyph-3-14" x="497.386963" y="353.942"/>
<use xlink:href="#glyph-3-9" x="505.729957" y="353.942"/>
<use xlink:href="#glyph-3-6" x="509.062955" y="353.942"/>
<use xlink:href="#glyph-3-2" x="517.405949" y="353.942"/>
<use xlink:href="#glyph-3-8" x="525.748944" y="353.942"/>
</g>
<g fill="rgb(7.841492%, 12.548828%, 11.373901%)" fill-opacity="1">
<use xlink:href="#glyph-3-11" x="534.070938" y="353.942"/>
<use xlink:href="#glyph-3-6" x="541.570933" y="353.942"/>
<use xlink:href="#glyph-3-8" x="549.913928" y="353.942"/>
</g>
<g fill="rgb(7.841492%, 12.548828%, 11.373901%)" fill-opacity="1">
<use xlink:href="#glyph-10-1" x="558.255" y="353.942"/>
</g>
<g fill="rgb(7.841492%, 12.548828%, 11.373901%)" fill-opacity="1">
<use xlink:href="#glyph-10-2" x="568.079993" y="353.942"/>
<use xlink:href="#glyph-10-3" x="573.43499" y="353.942"/>
<use xlink:href="#glyph-10-4" x="582.494984" y="353.942"/>
</g>
</svg>
